<mxfile host="drawio-plugin" modified="2023-02-22T16:27:52.836Z" agent="5.0 (Macintosh; Intel Mac OS X 10_15_7) AppleWebKit/537.36 (KHTML, like Gecko) Chrome/97.0.4692.45 Safari/537.36" version="20.5.3" etag="qdmZRrx7ml8mc4wfqY8X" type="embed"><diagram id="RsohUjub6pIVCRzY0Ggi" name="Page-1"><mxGraphModel dx="1838" dy="911" grid="1" gridSize="10" guides="1" tooltips="1" connect="1" arrows="1" fold="1" page="1" pageScale="1" pageWidth="827" pageHeight="1169" math="0" shadow="0"><root><mxCell id="0"/><mxCell id="1" parent="0"/><mxCell id="2" value="" style="ellipse;html=1;shape=startState;fillColor=#000000;strokeColor=#ff0000;" parent="1" vertex="1"><mxGeometry x="312.5" y="30" width="30" height="30" as="geometry"/></mxCell><mxCell id="3" value="" style="edgeStyle=orthogonalEdgeStyle;html=1;verticalAlign=bottom;endArrow=open;endSize=8;strokeColor=#ff0000;" parent="1" source="2" target="4" edge="1"><mxGeometry relative="1" as="geometry"><mxPoint x="327.5" y="110" as="targetPoint"/></mxGeometry></mxCell><mxCell id="7" value="" style="edgeStyle=none;html=1;entryX=0.5;entryY=0;entryDx=0;entryDy=0;" parent="1" source="4" target="25" edge="1"><mxGeometry relative="1" as="geometry"><mxPoint x="328.5" y="177" as="targetPoint"/></mxGeometry></mxCell><mxCell id="4" value="receive request" style="rounded=0;whiteSpace=wrap;html=1;" parent="1" vertex="1"><mxGeometry x="267.5" y="90" width="120" height="40" as="geometry"/></mxCell><mxCell id="9" value="found redirect" style="edgeStyle=none;html=1;" parent="1" source="6" target="8" edge="1"><mxGeometry relative="1" as="geometry"><mxPoint x="468.5" y="519.5" as="targetPoint"/></mxGeometry></mxCell><mxCell id="11" value="start of url in location" style="edgeStyle=none;html=1;" parent="1" source="14" target="10" edge="1"><mxGeometry relative="1" as="geometry"><mxPoint x="247.5" y="743.5" as="sourcePoint"/></mxGeometry></mxCell><mxCell id="13" value="" style="edgeStyle=none;html=1;" parent="1" source="6" target="12" edge="1"><mxGeometry relative="1" as="geometry"/></mxCell><mxCell id="6" value="" style="rhombus;" parent="1" vertex="1"><mxGeometry x="313.5" y="504.5" width="30" height="30" as="geometry"/></mxCell><mxCell id="87" value="" style="edgeStyle=none;html=1;" parent="1" source="8" target="70" edge="1"><mxGeometry relative="1" as="geometry"><mxPoint x="549.25" y="649.5" as="targetPoint"/><Array as="points"><mxPoint x="670" y="520"/><mxPoint x="670" y="1669"/></Array><mxPoint x="630" y="519.8343685300206" as="sourcePoint"/></mxGeometry></mxCell><mxCell id="90" value="" style="edgeStyle=none;html=1;" parent="1" source="8" target="12" edge="1"><mxGeometry relative="1" as="geometry"/></mxCell><mxCell id="8" value="create ResponseRedirect&lt;br&gt;to destination. set status" style="rounded=0;whiteSpace=wrap;html=1;" parent="1" vertex="1"><mxGeometry x="467" y="479.5" width="161.5" height="80" as="geometry"/></mxCell><mxCell id="43" value="" style="edgeStyle=none;html=1;" parent="1" source="10" target="42" edge="1"><mxGeometry relative="1" as="geometry"/></mxCell><mxCell id="10" value="create local path to file from location path" style="rounded=0;whiteSpace=wrap;html=1;" parent="1" vertex="1"><mxGeometry x="250.5" y="717.5" width="156" height="50" as="geometry"/></mxCell><mxCell id="15" value="" style="edgeStyle=none;html=1;" parent="1" source="12" target="14" edge="1"><mxGeometry relative="1" as="geometry"/></mxCell><mxCell id="12" value="search url in location path" style="rounded=0;whiteSpace=wrap;html=1;" parent="1" vertex="1"><mxGeometry x="261.5" y="558.5" width="134" height="40" as="geometry"/></mxCell><mxCell id="18" value="no location found" style="edgeStyle=none;html=1;" parent="1" source="14" target="17" edge="1"><mxGeometry relative="1" as="geometry"/></mxCell><mxCell id="14" value="" style="rhombus;" parent="1" vertex="1"><mxGeometry x="313.5" y="638.5" width="30" height="30" as="geometry"/></mxCell><mxCell id="17" value="create local path to file from root path" style="rounded=0;whiteSpace=wrap;html=1;" parent="1" vertex="1"><mxGeometry x="16.5" y="628.5" width="156" height="50" as="geometry"/></mxCell><mxCell id="36" value="" style="edgeStyle=none;html=1;" parent="1" source="19" target="32" edge="1"><mxGeometry relative="1" as="geometry"/></mxCell><mxCell id="19" value="compare CGI extention" style="rounded=0;whiteSpace=wrap;html=1;" parent="1" vertex="1"><mxGeometry x="248.5" y="1242" width="160" height="40" as="geometry"/></mxCell><mxCell id="21" value="" style="edgeStyle=none;html=1;exitX=0.5;exitY=1;exitDx=0;exitDy=0;entryX=0;entryY=0.5;entryDx=0;entryDy=0;" parent="1" source="17" target="42" edge="1"><mxGeometry relative="1" as="geometry"><mxPoint x="338.9545454545455" y="798.5" as="sourcePoint"/><mxPoint x="228.5" y="846" as="targetPoint"/><Array as="points"><mxPoint x="94.5" y="822"/></Array></mxGeometry></mxCell><mxCell id="23" value="" style="edgeStyle=none;html=1;entryX=0.5;entryY=0;entryDx=0;entryDy=0;" parent="1" source="22" target="6" edge="1"><mxGeometry relative="1" as="geometry"/></mxCell><mxCell id="22" value="search url in redirect path" style="rounded=0;whiteSpace=wrap;html=1;" parent="1" vertex="1"><mxGeometry x="268.5" y="438" width="120" height="40" as="geometry"/></mxCell><mxCell id="75" value="" style="edgeStyle=none;html=1;" parent="1" source="24" target="70" edge="1"><mxGeometry relative="1" as="geometry"><mxPoint x="68.5" y="1426" as="targetPoint"/><Array as="points"><mxPoint x="70" y="1509"/></Array></mxGeometry></mxCell><mxCell id="24" value="call CGI to treat request" style="rounded=0;whiteSpace=wrap;html=1;" parent="1" vertex="1"><mxGeometry x="-11.5" y="1316" width="160" height="40" as="geometry"/></mxCell><mxCell id="27" value="" style="edgeStyle=none;html=1;exitX=1;exitY=0.5;exitDx=0;exitDy=0;" parent="1" source="28" target="26" edge="1"><mxGeometry relative="1" as="geometry"><mxPoint x="378.5" y="253" as="sourcePoint"/></mxGeometry></mxCell><mxCell id="31" value="method not found" style="edgeLabel;html=1;align=center;verticalAlign=middle;resizable=0;points=[];" parent="27" vertex="1" connectable="0"><mxGeometry x="-0.4343" y="-3" relative="1" as="geometry"><mxPoint x="26" y="-4" as="offset"/></mxGeometry></mxCell><mxCell id="29" value="" style="edgeStyle=none;html=1;" parent="1" source="25" target="28" edge="1"><mxGeometry relative="1" as="geometry"/></mxCell><mxCell id="25" value="check allowed method" style="rounded=0;whiteSpace=wrap;html=1;" parent="1" vertex="1"><mxGeometry x="267.5" y="167" width="120" height="60" as="geometry"/></mxCell><mxCell id="89" value="" style="edgeStyle=none;html=1;" parent="1" source="26" target="70" edge="1"><mxGeometry relative="1" as="geometry"><mxPoint x="730.7500000000005" y="268" as="targetPoint"/><Array as="points"><mxPoint x="670" y="270"/><mxPoint x="670" y="1670"/></Array></mxGeometry></mxCell><mxCell id="26" value="create ResponseError&lt;br&gt;405 method not allowed" style="rounded=0;whiteSpace=wrap;html=1;" parent="1" vertex="1"><mxGeometry x="468.5" y="228" width="161.5" height="80" as="geometry"/></mxCell><mxCell id="30" value="" style="edgeStyle=none;html=1;" parent="1" source="28" target="91" edge="1"><mxGeometry relative="1" as="geometry"><mxPoint x="329" y="320" as="targetPoint"/></mxGeometry></mxCell><mxCell id="28" value="" style="rhombus;" parent="1" vertex="1"><mxGeometry x="312.5" y="253" width="30" height="30" as="geometry"/></mxCell><mxCell id="38" value="" style="edgeStyle=none;html=1;" parent="1" source="32" target="37" edge="1"><mxGeometry relative="1" as="geometry"/></mxCell><mxCell id="32" value="" style="rhombus;" parent="1" vertex="1"><mxGeometry x="313.5" y="1321" width="30" height="30" as="geometry"/></mxCell><mxCell id="33" value="extension found as CGI" style="edgeStyle=none;html=1;entryX=1;entryY=0.5;entryDx=0;entryDy=0;exitX=0;exitY=0.5;exitDx=0;exitDy=0;" parent="1" source="32" target="24" edge="1"><mxGeometry relative="1" as="geometry"><mxPoint x="322.5" y="1088.5" as="sourcePoint"/><mxPoint x="181.5" y="1088.5" as="targetPoint"/></mxGeometry></mxCell><mxCell id="71" value="" style="edgeStyle=none;html=1;" parent="1" source="37" target="40" edge="1"><mxGeometry relative="1" as="geometry"/></mxCell><mxCell id="37" value="compare mime_types extension" style="rounded=0;whiteSpace=wrap;html=1;" parent="1" vertex="1"><mxGeometry x="248.5" y="1392" width="160" height="40" as="geometry"/></mxCell><mxCell id="85" value="" style="edgeStyle=none;html=1;" parent="1" source="39" target="70" edge="1"><mxGeometry relative="1" as="geometry"><mxPoint x="561.5" y="1592" as="targetPoint"/><Array as="points"><mxPoint x="561" y="1669"/></Array></mxGeometry></mxCell><mxCell id="39" value="create ResponseError&lt;br&gt;415 Unsupported Media Type" style="rounded=0;whiteSpace=wrap;html=1;" parent="1" vertex="1"><mxGeometry x="490" y="1452" width="143" height="60" as="geometry"/></mxCell><mxCell id="41" value="mime_type not found" style="edgeStyle=none;html=1;" parent="1" source="40" target="39" edge="1"><mxGeometry relative="1" as="geometry"/></mxCell><mxCell id="73" value="" style="edgeStyle=none;html=1;" parent="1" source="40" target="72" edge="1"><mxGeometry relative="1" as="geometry"/></mxCell><mxCell id="40" value="" style="rhombus;" parent="1" vertex="1"><mxGeometry x="313.5" y="1467" width="30" height="30" as="geometry"/></mxCell><mxCell id="46" value="" style="edgeStyle=none;html=1;" parent="1" source="42" target="45" edge="1"><mxGeometry relative="1" as="geometry"/></mxCell><mxCell id="48" value="" style="edgeStyle=none;html=1;exitX=1;exitY=0.5;exitDx=0;exitDy=0;" parent="1" source="45" target="47" edge="1"><mxGeometry relative="1" as="geometry"/></mxCell><mxCell id="49" value="file not found" style="edgeLabel;html=1;align=center;verticalAlign=middle;resizable=0;points=[];" parent="48" vertex="1" connectable="0"><mxGeometry x="-0.4278" relative="1" as="geometry"><mxPoint x="17" as="offset"/></mxGeometry></mxCell><mxCell id="42" value="verify if exists file and access" style="rounded=0;whiteSpace=wrap;html=1;" parent="1" vertex="1"><mxGeometry x="248.5" y="802" width="160" height="40" as="geometry"/></mxCell><mxCell id="51" value="" style="edgeStyle=none;html=1;" parent="1" source="45" target="50" edge="1"><mxGeometry relative="1" as="geometry"/></mxCell><mxCell id="45" value="" style="rhombus;" parent="1" vertex="1"><mxGeometry x="313.5" y="867" width="30" height="30" as="geometry"/></mxCell><mxCell id="83" value="" style="edgeStyle=none;html=1;" parent="1" source="47" target="70" edge="1"><mxGeometry relative="1" as="geometry"><mxPoint x="538.5" y="992" as="targetPoint"/><Array as="points"><mxPoint x="670" y="882"/><mxPoint x="670" y="1669"/></Array></mxGeometry></mxCell><mxCell id="47" value="create ResponseError&lt;br&gt;404 File not found" style="rounded=0;whiteSpace=wrap;html=1;" parent="1" vertex="1"><mxGeometry x="467" y="852" width="143" height="60" as="geometry"/></mxCell><mxCell id="53" value="" style="edgeStyle=none;html=1;" parent="1" source="50" target="52" edge="1"><mxGeometry relative="1" as="geometry"/></mxCell><mxCell id="50" value="check type if folder" style="rounded=0;whiteSpace=wrap;html=1;" parent="1" vertex="1"><mxGeometry x="248.5" y="932" width="160" height="40" as="geometry"/></mxCell><mxCell id="55" value="the file is a folder" style="edgeStyle=none;html=1;" parent="1" source="52" target="54" edge="1"><mxGeometry relative="1" as="geometry"/></mxCell><mxCell id="57" value="" style="edgeStyle=none;html=1;entryX=0.5;entryY=0;entryDx=0;entryDy=0;" parent="1" source="52" target="19" edge="1"><mxGeometry relative="1" as="geometry"/></mxCell><mxCell id="52" value="" style="rhombus;" parent="1" vertex="1"><mxGeometry x="313.5" y="1002" width="30" height="30" as="geometry"/></mxCell><mxCell id="61" value="file index found in folder" style="edgeStyle=none;html=1;exitX=0.5;exitY=1;exitDx=0;exitDy=0;" parent="1" source="62" target="19" edge="1"><mxGeometry x="-0.3651" relative="1" as="geometry"><mxPoint x="95" y="1202" as="sourcePoint"/><mxPoint x="94.5" y="1127" as="targetPoint"/><Array as="points"><mxPoint x="95" y="1262"/></Array><mxPoint as="offset"/></mxGeometry></mxCell><mxCell id="63" value="" style="edgeStyle=none;html=1;" parent="1" source="54" target="62" edge="1"><mxGeometry relative="1" as="geometry"/></mxCell><mxCell id="54" value="Check exists index file&lt;br&gt;in folder" style="whiteSpace=wrap;html=1;" parent="1" vertex="1"><mxGeometry x="19.5" y="987" width="150" height="60" as="geometry"/></mxCell><mxCell id="59" value="" style="edgeStyle=none;html=1;" parent="1" source="56" target="58" edge="1"><mxGeometry relative="1" as="geometry"/></mxCell><mxCell id="56" value="check option auto_index" style="whiteSpace=wrap;html=1;" parent="1" vertex="1"><mxGeometry x="-224.5" y="1097" width="160" height="40" as="geometry"/></mxCell><mxCell id="66" value="" style="edgeStyle=none;html=1;" parent="1" source="58" target="65" edge="1"><mxGeometry relative="1" as="geometry"/></mxCell><mxCell id="67" value="option active" style="edgeLabel;html=1;align=center;verticalAlign=middle;resizable=0;points=[];" parent="66" vertex="1" connectable="0"><mxGeometry x="0.18" y="-2" relative="1" as="geometry"><mxPoint as="offset"/></mxGeometry></mxCell><mxCell id="69" value="" style="edgeStyle=none;html=1;" parent="1" source="58" target="68" edge="1"><mxGeometry relative="1" as="geometry"/></mxCell><mxCell id="58" value="" style="rhombus;" parent="1" vertex="1"><mxGeometry x="-159.5" y="1172" width="30" height="30" as="geometry"/></mxCell><mxCell id="64" value="no file" style="edgeStyle=none;html=1;" parent="1" source="62" target="56" edge="1"><mxGeometry relative="1" as="geometry"/></mxCell><mxCell id="62" value="" style="rhombus;" parent="1" vertex="1"><mxGeometry x="79.5" y="1102" width="30" height="30" as="geometry"/></mxCell><mxCell id="79" value="" style="edgeStyle=none;html=1;" parent="1" source="65" target="70" edge="1"><mxGeometry relative="1" as="geometry"><mxPoint x="-300" y="1297" as="targetPoint"/><Array as="points"><mxPoint x="-350" y="1669"/></Array></mxGeometry></mxCell><mxCell id="65" value="create ResponseFolderList" style="whiteSpace=wrap;html=1;" parent="1" vertex="1"><mxGeometry x="-413" y="1157" width="120" height="60" as="geometry"/></mxCell><mxCell id="77" value="" style="edgeStyle=none;html=1;" parent="1" source="68" target="70" edge="1"><mxGeometry relative="1" as="geometry"><mxPoint x="-91.5" y="1354.5" as="targetPoint"/><Array as="points"><mxPoint x="-144" y="1499"/></Array></mxGeometry></mxCell><mxCell id="68" value="create ResponseError&lt;br&gt;403 Forbidden" style="whiteSpace=wrap;html=1;" parent="1" vertex="1"><mxGeometry x="-224.5" y="1237" width="160" height="45" as="geometry"/></mxCell><mxCell id="70" value="" style="ellipse;html=1;shape=endState;fillColor=strokeColor;" parent="1" vertex="1"><mxGeometry x="172.5" y="1659" width="30" height="30" as="geometry"/></mxCell><mxCell id="81" value="" style="edgeStyle=none;html=1;" parent="1" source="72" target="70" edge="1"><mxGeometry relative="1" as="geometry"><mxPoint x="327.5" y="1674" as="targetPoint"/><Array as="points"><mxPoint x="328" y="1674"/></Array></mxGeometry></mxCell><mxCell id="72" value="create ResponseFile" style="rounded=0;whiteSpace=wrap;html=1;" parent="1" vertex="1"><mxGeometry x="246.75" y="1549" width="161.5" height="50" as="geometry"/></mxCell><mxCell id="96" value="" style="edgeStyle=none;html=1;" parent="1" source="91" target="95" edge="1"><mxGeometry relative="1" as="geometry"/></mxCell><mxCell id="91" value="check body size" style="rounded=0;whiteSpace=wrap;html=1;" parent="1" vertex="1"><mxGeometry x="268.5" y="320" width="120" height="40" as="geometry"/></mxCell><mxCell id="93" value="" style="edgeStyle=none;html=1;exitX=1;exitY=0.5;exitDx=0;exitDy=0;" parent="1" source="95" target="98" edge="1"><mxGeometry relative="1" as="geometry"><mxPoint x="379.5" y="380" as="sourcePoint"/><mxPoint x="460" y="400" as="targetPoint"/></mxGeometry></mxCell><mxCell id="94" value="size to big" style="edgeLabel;html=1;align=center;verticalAlign=middle;resizable=0;points=[];" parent="93" vertex="1" connectable="0"><mxGeometry x="-0.4343" y="-3" relative="1" as="geometry"><mxPoint x="26" y="-4" as="offset"/></mxGeometry></mxCell><mxCell id="97" value="" style="edgeStyle=none;html=1;" parent="1" source="95" target="22" edge="1"><mxGeometry relative="1" as="geometry"/></mxCell><mxCell id="95" value="" style="rhombus;" parent="1" vertex="1"><mxGeometry x="313.5" y="380" width="30" height="30" as="geometry"/></mxCell><mxCell id="98" value="create ResponseError&lt;br&gt;413 payload to large" style="rounded=0;whiteSpace=wrap;html=1;" parent="1" vertex="1"><mxGeometry x="467" y="355" width="161.5" height="80" as="geometry"/></mxCell><mxCell id="100" value="" style="edgeStyle=none;html=1;" parent="1" source="98" target="70" edge="1"><mxGeometry relative="1" as="geometry"><mxPoint x="212.49961626606955" y="1683.892706607539" as="targetPoint"/><Array as="points"><mxPoint x="670" y="395"/><mxPoint x="670" y="1670"/></Array><mxPoint x="640" y="279.3374741200828" as="sourcePoint"/></mxGeometry></mxCell></root></mxGraphModel></diagram></mxfile>